<svg width="4999" height="1275" viewBox="0 0 4999 1275" fill="none" xmlns="http://www.w3.org/2000/svg">
<path d="M916.293 916.293C864.674 916.293 823.286 957.682 823.286 1009.3C823.286 1033.97 833.085 1057.62 850.527 1075.07C867.969 1092.51 891.626 1102.31 916.293 1102.31C940.96 1102.31 964.617 1092.51 982.059 1075.07C999.501 1057.62 1009.3 1033.97 1009.3 1009.3C1009.3 957.682 967.447 916.293 916.293 916.293ZM172.235 172.236V248.019C172.235 257.532 179.947 265.243 189.459 265.243H264.153C264.819 265.243 265.424 265.626 265.709 266.227L432.276 617.405C432.514 617.907 432.496 618.494 432.226 618.979L369.411 732.139C362.435 745.16 358.25 760.506 358.25 776.783C358.25 801.45 368.049 825.106 385.491 842.549C402.933 859.991 426.59 869.79 451.257 869.79H992.077C1001.59 869.79 1009.3 862.079 1009.3 852.566V794.006C1009.3 784.494 1001.59 776.783 992.077 776.783H470.789C467.705 776.783 464.748 775.558 462.568 773.378C460.388 771.197 459.163 768.24 459.163 765.157C459.163 762.832 459.628 760.971 460.558 759.576L501.92 684.665C502.223 684.116 502.8 683.775 503.428 683.775H848.863C883.741 683.775 914.433 664.244 930.244 635.877L1096.73 334.998C1099.98 327.558 1102.31 319.652 1102.31 311.746C1102.31 299.413 1097.41 287.585 1088.69 278.863C1079.97 270.142 1068.14 265.243 1055.8 265.243H369.109C368.442 265.243 367.834 264.857 367.55 264.253L324.302 172.236M451.257 916.293C399.638 916.293 358.25 957.682 358.25 1009.3C358.25 1033.97 368.049 1057.62 385.491 1075.07C402.933 1092.51 426.59 1102.31 451.257 1102.31C475.924 1102.31 499.581 1092.51 517.023 1075.07C534.465 1057.62 544.264 1033.97 544.264 1009.3C544.264 957.682 502.411 916.293 451.257 916.293Z" fill="#8000FF"/>
<path d="M1849.95 555.409C1849.95 578.557 1844.37 600.259 1833.21 620.514C1822.46 640.769 1805.3 657.096 1781.74 669.497C1758.59 681.898 1729.25 688.099 1693.7 688.099H1621.15V854.272H1534.34V421.478H1693.7C1727.18 421.478 1755.7 427.265 1779.26 438.839C1802.82 450.414 1820.39 466.328 1831.97 486.583C1843.95 506.838 1849.95 529.78 1849.95 555.409ZM1689.98 618.033C1713.95 618.033 1731.73 612.66 1743.3 601.912C1754.87 590.751 1760.66 575.25 1760.66 555.409C1760.66 513.245 1737.1 492.164 1689.98 492.164H1621.15V618.033H1689.98ZM2105.04 505.805C2131.08 505.805 2154.23 511.592 2174.48 523.166C2194.74 534.327 2210.44 551.068 2221.6 573.39C2233.18 595.298 2238.97 621.754 2238.97 652.756V854.272H2152.16V664.537C2152.16 637.255 2145.34 616.38 2131.7 601.912C2118.06 587.031 2099.45 579.59 2075.89 579.59C2051.92 579.59 2032.9 587.031 2018.85 601.912C2005.21 616.38 1998.39 637.255 1998.39 664.537V854.272H1911.58V395.436H1998.39V553.548C2009.55 538.667 2024.43 527.093 2043.03 518.826C2061.63 510.145 2082.3 505.805 2105.04 505.805ZM2299.19 681.278C2299.19 646.556 2306.01 615.76 2319.65 588.891C2333.71 562.022 2352.52 541.354 2376.08 526.886C2400.05 512.419 2426.72 505.185 2456.06 505.185C2481.69 505.185 2504.02 510.352 2523.03 520.686C2542.46 531.02 2557.96 544.041 2569.53 559.749V510.765H2656.96V854.272H2569.53V804.048C2558.37 820.169 2542.87 833.604 2523.03 844.351C2503.6 854.685 2481.07 859.852 2455.44 859.852C2426.51 859.852 2400.05 852.412 2376.08 837.53C2352.52 822.649 2333.71 801.774 2319.65 774.906C2306.01 747.623 2299.19 716.414 2299.19 681.278ZM2569.53 682.518C2569.53 661.437 2565.4 643.455 2557.13 628.574C2548.87 613.28 2537.7 601.705 2523.65 593.852C2509.6 585.584 2494.51 581.451 2478.39 581.451C2462.27 581.451 2447.38 585.378 2433.74 593.231C2420.1 601.085 2408.94 612.66 2400.26 627.954C2391.99 642.835 2387.86 660.61 2387.86 681.278C2387.86 701.947 2391.99 720.135 2400.26 735.843C2408.94 751.137 2420.1 762.918 2433.74 771.185C2447.8 779.453 2462.68 783.586 2478.39 783.586C2494.51 783.586 2509.6 779.659 2523.65 771.805C2537.7 763.538 2548.87 751.964 2557.13 737.083C2565.4 721.788 2569.53 703.6 2569.53 682.518ZM2828.55 564.089C2839.71 545.901 2854.18 531.64 2871.95 521.306C2890.14 510.972 2910.81 505.805 2933.96 505.805V596.952H2911.02C2883.73 596.952 2863.07 603.359 2849.01 616.173C2835.37 628.988 2828.55 651.309 2828.55 683.138V854.272H2741.74V510.765H2828.55V564.089ZM3419.02 505.805C3461.18 505.805 3495.08 518.826 3520.71 544.868C3546.75 570.496 3559.77 606.459 3559.77 652.756V854.272H3472.96V664.537C3472.96 637.668 3466.14 617.207 3452.5 603.152C3438.86 588.684 3420.26 581.451 3396.7 581.451C3373.14 581.451 3354.33 588.684 3340.27 603.152C3326.63 617.207 3319.81 637.668 3319.81 664.537V854.272H3233V664.537C3233 637.668 3226.18 617.207 3212.54 603.152C3198.9 588.684 3180.3 581.451 3156.74 581.451C3132.76 581.451 3113.75 588.684 3099.69 603.152C3086.05 617.207 3079.23 637.668 3079.23 664.537V854.272H2992.43V510.765H3079.23V552.308C3090.39 537.841 3104.65 526.473 3122.02 518.206C3139.79 509.938 3159.22 505.805 3180.3 505.805C3207.17 505.805 3231.14 511.592 3252.23 523.166C3273.31 534.327 3289.64 550.448 3301.21 571.53C3312.37 551.688 3328.49 535.774 3349.57 523.786C3371.07 511.798 3394.22 505.805 3419.02 505.805ZM4160.06 854.272H4073.25L3876.7 557.269V854.272H3789.89V420.858H3876.7L4073.25 718.481V420.858H4160.06V854.272ZM4565.17 675.078C4565.17 687.479 4564.34 698.64 4562.69 708.56H4311.57C4313.64 733.362 4322.32 752.791 4337.61 766.845C4352.91 780.899 4371.71 787.927 4394.04 787.927C4426.28 787.927 4449.22 774.079 4462.86 746.383H4556.49C4546.57 779.453 4527.55 806.735 4499.44 828.23C4471.33 849.311 4436.82 859.852 4395.9 859.852C4362.83 859.852 4333.06 852.618 4306.61 838.151C4280.57 823.269 4260.1 802.394 4245.22 775.526C4230.76 748.657 4223.52 717.654 4223.52 682.518C4223.52 646.969 4230.76 615.76 4245.22 588.891C4259.69 562.022 4279.95 541.354 4305.99 526.886C4332.03 512.419 4362 505.185 4395.9 505.185C4428.55 505.185 4457.69 512.212 4483.32 526.266C4509.36 540.321 4529.41 560.369 4543.47 586.411C4557.93 612.04 4565.17 641.595 4565.17 675.078ZM4475.26 650.276C4474.85 627.954 4466.79 610.179 4451.08 596.952C4435.37 583.311 4416.15 576.49 4393.42 576.49C4371.92 576.49 4353.73 583.104 4338.85 596.332C4324.38 609.146 4315.5 627.127 4312.19 650.276H4475.26ZM4729.6 582.071V748.244C4729.6 759.818 4732.28 768.292 4737.66 773.666C4743.45 778.626 4752.95 781.106 4766.18 781.106H4806.48V854.272H4751.92C4678.75 854.272 4642.17 818.722 4642.17 747.623V582.071H4601.25V510.765H4642.17V425.818H4729.6V510.765H4806.48V582.071H4729.6Z" fill="white"/>
</svg>
